<?xml version="1.0" encoding="UTF-8"?>
<svg width="512" height="512" viewBox="0 0 512 512" fill="none" xmlns="http://www.w3.org/2000/svg">
  <rect width="512" height="512" rx="128" fill="#1A56DB"/>
  <path d="M128 192C128 174.327 142.327 160 160 160H352C369.673 160 384 174.327 384 192V320C384 337.673 369.673 352 352 352H160C142.327 352 128 337.673 128 320V192Z" fill="white"/>
  <path d="M176 208H336V240H176V208Z" fill="#1A56DB"/>
  <path d="M176 272H272V304H176V272Z" fill="#1A56DB"/>
  <path d="M304 272H336V304H304V272Z" fill="#1A56DB"/>
  <path d="M384 144L432 96L448 112L400 160L384 144Z" fill="#60A5FA"/>
  <path d="M128 144L80 96L64 112L112 160L128 144Z" fill="#60A5FA"/>
  <path d="M384 368L432 416L448 400L400 352L384 368Z" fill="#60A5FA"/>
  <path d="M128 368L80 416L64 400L112 352L128 368Z" fill="#60A5FA"/>
</svg>
